<svg width="26" height="25" viewBox="0 0 26 25" fill="none" xmlns="http://www.w3.org/2000/svg">
<g clip-path="url(#clip0_501_1095)">
<path d="M7.3125 5.20833C7.375 6.13542 7.53125 7.04167 7.78125 7.90625L6.53125 9.15625C6.10417 7.90625 5.83333 6.58333 5.73958 5.20833H7.3125ZM17.5833 17.7292C18.4687 17.9792 19.375 18.1354 20.2917 18.1979V19.75C18.9167 19.6562 17.5937 19.3854 16.3333 18.9687L17.5833 17.7292ZM8.3125 3.125H4.66667C4.09375 3.125 3.625 3.59375 3.625 4.16667C3.625 13.9479 11.5521 21.875 21.3333 21.875C21.9062 21.875 22.375 21.4062 22.375 20.8333V17.1979C22.375 16.625 21.9062 16.1562 21.3333 16.1562C20.0417 16.1562 18.7812 15.9479 17.6146 15.5625C17.5104 15.5208 17.3958 15.5104 17.2917 15.5104C17.0208 15.5104 16.7604 15.6146 16.5521 15.8125L14.2604 18.1042C11.3125 16.5937 8.89583 14.1875 7.39583 11.2396L9.6875 8.94792C9.97917 8.65625 10.0625 8.25 9.94792 7.88542C9.5625 6.71875 9.35417 5.46875 9.35417 4.16667C9.35417 3.59375 8.88542 3.125 8.3125 3.125Z" fill="#7BA4A2"/>
</g>
<defs>
<clipPath id="clip0_501_1095">
<rect width="25" height="25" fill="white" transform="translate(0.5)"/>
</clipPath>
</defs>
</svg>
