<svg width="28" height="27" viewBox="0 0 28 27" fill="none" xmlns="http://www.w3.org/2000/svg">
<g clip-path="url(#clip0_501_1086)">
<path d="M21.9316 5.52375C19.8279 3.40875 17.0266 2.25 14.0454 2.25C7.90289 2.25 2.89664 7.25625 2.89664 13.3988C2.89664 15.3675 3.41414 17.28 4.38164 18.9675L2.80664 24.75L8.71289 23.1975C10.3441 24.0863 12.1779 24.5588 14.0454 24.5588C20.1879 24.5588 25.1941 19.5525 25.1941 13.41C25.1941 10.4288 24.0354 7.6275 21.9316 5.52375ZM14.0454 22.6688C12.3804 22.6688 10.7491 22.2188 9.32039 21.375L8.98289 21.1725L5.47289 22.095L6.40664 18.675L6.18164 18.3263C5.25914 16.8525 4.76414 15.1425 4.76414 13.3988C4.76414 8.29125 8.92664 4.12875 14.0341 4.12875C16.5091 4.12875 18.8379 5.09625 20.5816 6.85125C22.3366 8.60625 23.2929 10.935 23.2929 13.41C23.3154 18.5175 19.1529 22.6688 14.0454 22.6688ZM19.1304 15.7388C18.8491 15.6038 17.4766 14.9288 17.2291 14.8275C16.9704 14.7375 16.7904 14.6925 16.5991 14.9625C16.4079 15.2438 15.8791 15.8738 15.7216 16.0538C15.5641 16.245 15.3954 16.2675 15.1141 16.1213C14.8329 15.9863 13.9329 15.6825 12.8754 14.7375C12.0429 13.995 11.4916 13.0838 11.3229 12.8025C11.1654 12.5213 11.3004 12.375 11.4466 12.2288C11.5704 12.105 11.7279 11.9025 11.8629 11.745C11.9979 11.5875 12.0541 11.4638 12.1441 11.2838C12.2341 11.0925 12.1891 10.935 12.1216 10.8C12.0541 10.665 11.4916 9.2925 11.2666 8.73C11.0416 8.19 10.8054 8.2575 10.6366 8.24625C10.4679 8.24625 10.2879 8.24625 10.0966 8.24625C9.90539 8.24625 9.61289 8.31375 9.35414 8.595C9.10664 8.87625 8.38664 9.55125 8.38664 10.9238C8.38664 12.2963 9.38789 13.6238 9.52289 13.8038C9.65789 13.995 11.4916 16.8075 14.2816 18.0113C14.9454 18.3038 15.4629 18.4725 15.8679 18.5963C16.5316 18.81 17.1391 18.7763 17.6229 18.7088C18.1629 18.63 19.2766 18.0338 19.5016 17.3813C19.7379 16.7288 19.7379 16.1775 19.6591 16.0538C19.5804 15.93 19.4116 15.8738 19.1304 15.7388Z" fill="#7BA4A2"/>
</g>
<defs>
<clipPath id="clip0_501_1086">
<rect width="27" height="27" fill="white" transform="translate(0.5)"/>
</clipPath>
</defs>
</svg>
